<svg version="1.1" id="Layer_1" xmlns="http://www.w3.org/2000/svg" xmlns:xlink="http://www.w3.org/1999/xlink" x="0px" y="0px"
	 viewBox="0 0 255 147" enable-background="new 0 0 255 147" width="255" height="147" xml:space="preserve">
<path fill="#35A754" d="M254.3,16.5l-43.1,43.1c-0.4,0.4-1,0.4-1.4,0l-6.4-6.4c-0.4-0.4-0.4-1,0-1.4l43.1-43.1c0.4-0.4,1-0.4,1.4,0
	l6.4,6.4C254.6,15.5,254.6,16.1,254.3,16.5z"/>
<path fill="#F8B400" d="M177.9,73.1c-0.4,0.4-1,0.4-1.4,0l-6.4-6.4c-0.4-0.4-0.4-1,0-1.4L217.5,18c0.4-0.4,1-0.4,1.4,0l6.4,6.4
	c0.4,0.4,0.4,1,0,1.4L177.9,73.1z"/>
<path fill="#86C440" d="M183.5,47.7c-0.4,0.4-1,0.4-1.4,0l-6.4-6.4c-0.4-0.4-0.4-1,0-1.4l39.6-39.6c0.4-0.4,1-0.4,1.4,0l6.4,6.4
	c0.4,0.4,0.4,1,0,1.4L183.5,47.7z"/>
<path fill="#808084" d="M180.7,30.7c-0.4,0.4-1,0.4-1.4,0l-6.4-6.4c-0.4-0.4-0.4-1,0-1.4L192,3.8c0.4-0.4,1-0.4,1.4,0l6.4,6.4
	c0.4,0.4,0.4,1,0,1.4L180.7,30.7z"/>
<path fill="#808084" d="M171.1,137.7v8.7h-3.1v-7.7c0-1.1-0.3-1.9-0.8-2.5c-0.5-0.6-1.2-0.9-2.1-0.9c-0.9,0-1.6,0.3-2.2,0.9
	c-0.6,0.6-0.8,1.4-0.8,2.5v7.7h-3.1v-13.6h3.1v2.1c0.2-0.3,0.5-0.6,0.7-0.9s0.6-0.5,0.9-0.8c0.4-0.2,0.7-0.4,1.2-0.5
	c0.4-0.1,0.9-0.2,1.4-0.2c1.5,0,2.7,0.5,3.6,1.4C170.7,134.8,171.1,136.1,171.1,137.7z"/>
<path fill="#808084" d="M157.2,120.7c-2.1,0.6-4.7,1-7.6,1c-2.5,0-4.8-0.3-7.1-0.8c-2.2-0.5-4.3-1.3-6.2-2.3l2.9-6.4
	c1.6,0.9,3.1,1.5,4.7,2c1.6,0.5,3.4,0.7,5.4,0.7c2.9,0,5.1-0.7,6.5-2.1c1.4-1.4,2.1-3.4,2.1-6.1v-1.5c-1.3,1.5-2.7,2.7-4.1,3.6
	c-1.5,0.9-3.4,1.3-5.7,1.3c-1.8,0-3.4-0.3-5-0.9c-1.6-0.6-3-1.5-4.3-2.7s-2.2-2.7-2.9-4.4s-1.1-3.7-1.1-6V96c0-2.2,0.4-4.2,1.1-6
	c0.7-1.7,1.7-3.2,3-4.4s2.7-2.1,4.3-2.7c1.6-0.6,3.3-0.9,5-0.9c2.3,0,4.2,0.4,5.7,1.3c1.5,0.9,2.8,1.9,4,3.2v-3.9h8.5v23.2
	c0,5.3-1.3,9.3-3.8,11.8C161.2,119,159.4,120,157.2,120.7z M158,96c0-1-0.2-1.9-0.6-2.8c-0.4-0.9-0.9-1.6-1.5-2.2
	c-0.7-0.6-1.4-1.1-2.3-1.4c-0.9-0.3-1.9-0.5-2.9-0.5c-1,0-2,0.2-2.9,0.5c-0.9,0.3-1.6,0.8-2.3,1.4c-0.7,0.6-1.2,1.4-1.5,2.2
	c-0.4,0.9-0.6,1.8-0.6,2.8v0.1c0,2.1,0.7,3.8,2.1,5c1.4,1.3,3.1,1.9,5.2,1.9c1,0,2-0.2,2.9-0.5c0.9-0.3,1.7-0.8,2.3-1.4
	c0.7-0.6,1.2-1.4,1.5-2.2c0.4-0.9,0.6-1.8,0.6-2.8V96z"/>
<path fill="#808084" d="M138,135.8c0.4-1,1-1.9,1.8-2.5c0.8-0.6,1.8-0.9,3-0.9v3.3h-0.2c-0.7,0-1.3,0.1-1.9,0.3
	c-0.6,0.2-1.1,0.6-1.5,1c-0.4,0.4-0.7,1-1,1.7c-0.2,0.7-0.3,1.5-0.3,2.4v5.2h-3.2v-13.6h3.2V135.8z"/>
<path fill="#808084" d="M128.7,144.2c-0.4,0.7-1,1.2-1.7,1.7c-0.7,0.5-1.5,0.7-2.6,0.7c-1.5,0-2.7-0.5-3.6-1.4
	c-0.8-0.9-1.3-2.2-1.3-3.8v-8.7h3.2v7.7c0,1.1,0.3,1.9,0.8,2.5c0.5,0.6,1.2,0.9,2.1,0.9c0.9,0,1.6-0.3,2.2-0.9
	c0.6-0.6,0.8-1.4,0.8-2.5v-7.7h3.2v13.6h-3.2V144.2z"/>
<path fill="#808084" d="M120.3,95.8c0-2-0.4-3.5-1.3-4.6c-0.9-1-2.2-1.5-3.8-1.5c-1.6,0-2.9,0.5-3.9,1.5c-1,1-1.4,2.5-1.4,4.6v16.7
	h-8.5v-30h8.5v4.3c0.5-0.6,1-1.3,1.6-1.8c0.6-0.6,1.2-1.1,1.9-1.6c0.7-0.5,1.5-0.8,2.4-1.1c0.9-0.3,1.8-0.4,2.9-0.4
	c3.2,0,5.8,1,7.5,3c1.8,2,2.7,4.7,2.7,8.2v19.4h-8.5V95.8z"/>
<path fill="#808084" d="M103.6,133.9c0.8,0.9,1.3,2.2,1.3,3.8v8.7h-3.2v-7.7c0-1.1-0.3-1.9-0.8-2.5c-0.5-0.6-1.2-0.9-2.1-0.9
	c-0.9,0-1.6,0.3-2.2,0.9c-0.6,0.6-0.8,1.4-0.8,2.5v7.7h-3.1v-13.6h3.1v2.1c0.2-0.3,0.5-0.6,0.7-0.9s0.6-0.5,0.9-0.8
	c0.4-0.2,0.7-0.4,1.2-0.5c0.4-0.1,0.9-0.2,1.4-0.2C101.6,132.5,102.8,132.9,103.6,133.9z"/>
<path fill="#808084" d="M85.7,109.3c-1,1.2-2.3,2.1-3.8,2.8c-1.5,0.7-3.2,1-5.3,1c-1.4,0-2.8-0.2-4-0.6c-1.3-0.4-2.3-1-3.3-1.8
	c-0.9-0.8-1.7-1.7-2.2-2.9c-0.5-1.1-0.8-2.5-0.8-3.9v-0.1c0-1.6,0.3-3.1,0.9-4.3c0.6-1.2,1.4-2.2,2.5-3c1.1-0.8,2.3-1.4,3.8-1.8
	c1.5-0.4,3.1-0.6,4.9-0.6c1.5,0,2.9,0.1,4,0.3c1.1,0.2,2.2,0.5,3.3,0.9V95c0-1.8-0.5-3.2-1.6-4.1c-1.1-0.9-2.7-1.4-4.8-1.4
	c-1.6,0-3.1,0.1-4.3,0.4c-1.3,0.3-2.6,0.7-3.9,1.2l-2.1-6.5c1.6-0.7,3.4-1.3,5.2-1.7c1.8-0.4,4-0.7,6.5-0.7c2.4,0,4.4,0.3,6,0.9
	c1.7,0.6,3,1.4,4.1,2.5c1.1,1.1,1.9,2.5,2.5,4.1c0.5,1.6,0.8,3.4,0.8,5.5v17.4h-8.2V109.3z M85.9,100.4c-0.7-0.3-1.6-0.6-2.5-0.8
	c-0.9-0.2-1.9-0.3-2.9-0.3c-1.8,0-3.3,0.4-4.3,1.1c-1,0.7-1.6,1.7-1.6,3.1v0.1c0,1.2,0.4,2.1,1.3,2.7c0.9,0.6,2,1,3.4,1
	c2,0,3.6-0.5,4.8-1.5c1.2-1,1.8-2.2,1.8-3.8V100.4z"/>
<path fill="#808084" d="M55.7,93.4c-1.6,1.7-2.4,4.4-2.4,8v11.1h-8.5v-30h8.5v6c0.9-2.1,2-3.7,3.5-4.9c1.5-1.2,3.5-1.8,6-1.7v8.9
	h-0.4C59.6,90.9,57.3,91.7,55.7,93.4z"/>
<path fill="#808084" d="M30.2,111.4c-2.8,1.2-6,1.8-9.5,1.8c-3.1,0-5.9-0.5-8.4-1.5c-2.5-1-4.7-2.4-6.5-4.2
	c-1.8-1.8-3.2-3.9-4.2-6.4C0.5,98.7,0,96,0,93.1v-0.1c0-2.8,0.5-5.4,1.5-7.9c1-2.4,2.5-4.6,4.3-6.4c1.8-1.8,4-3.3,6.5-4.4
	c2.5-1.1,5.2-1.6,8.2-1.6c1.8,0,3.4,0.1,4.8,0.4c1.4,0.2,2.8,0.6,4,1c1.2,0.4,2.4,1,3.5,1.7c1.1,0.7,2.1,1.4,3.1,2.3l-5.4,6.6
	c-0.7-0.6-1.5-1.2-2.2-1.7c-0.7-0.5-1.5-0.9-2.3-1.2c-0.8-0.3-1.7-0.6-2.6-0.8c-0.9-0.2-2-0.3-3.1-0.3c-1.6,0-3,0.3-4.4,1
	c-1.4,0.7-2.6,1.5-3.6,2.6c-1,1.1-1.8,2.4-2.4,3.9C9.3,89.6,9,91.2,9,92.9V93c0,1.8,0.3,3.5,0.9,5c0.6,1.5,1.4,2.8,2.5,4
	c1.1,1.1,2.3,2,3.8,2.6c1.4,0.6,3,0.9,4.8,0.9c3.2,0,5.9-0.8,8.1-2.4v-5.6h-8.7V90h17v17C35.3,108.7,33,110.2,30.2,111.4z"/>
<rect x="85.9" y="128.3" fill="#808084" width="3.2" height="18.1"/>
<path fill="#808084" d="M110.3,143.7c0.8,0.3,1.5,0.4,2.2,0.4c0.7,0,1.2-0.1,1.6-0.4c0.4-0.3,0.6-0.6,0.6-1.1v-0.1
	c0-0.3-0.1-0.5-0.2-0.7c-0.2-0.2-0.4-0.4-0.7-0.5c-0.3-0.1-0.6-0.3-1-0.4c-0.4-0.1-0.8-0.2-1.1-0.4c-0.5-0.1-1-0.3-1.5-0.5
	c-0.5-0.2-1-0.4-1.4-0.7c-0.4-0.3-0.7-0.7-1-1.1c-0.3-0.4-0.4-1-0.4-1.6v-0.1c0-0.6,0.1-1.2,0.4-1.7c0.2-0.5,0.6-1,1-1.3
	c0.4-0.4,1-0.6,1.5-0.8c0.6-0.2,1.2-0.3,1.9-0.3c0.9,0,1.7,0.1,2.6,0.4c0.9,0.3,1.7,0.7,2.4,1.1l-1.2,2.2c-0.7-0.4-1.3-0.7-2-0.9
	c-0.7-0.2-1.3-0.3-1.9-0.3c-0.6,0-1.1,0.1-1.4,0.4c-0.3,0.3-0.5,0.6-0.5,1v0.1c0,0.2,0.1,0.5,0.3,0.6c0.2,0.2,0.4,0.3,0.7,0.5
	c0.3,0.1,0.6,0.3,1,0.4c0.4,0.1,0.8,0.3,1.1,0.4c0.5,0.2,1,0.3,1.5,0.5c0.5,0.2,1,0.5,1.4,0.8c0.4,0.3,0.7,0.7,1,1.1
	c0.3,0.4,0.4,1,0.4,1.6v0.1c0,0.7-0.1,1.3-0.4,1.9c-0.3,0.5-0.6,1-1.1,1.3c-0.5,0.4-1,0.6-1.6,0.8c-0.6,0.2-1.3,0.3-2,0.3
	c-1,0-2-0.2-3-0.5c-1-0.3-1.9-0.9-2.8-1.5l1.4-2.1C108.8,143,109.5,143.4,110.3,143.7z"/>
<path fill="#808084" d="M145.2,139c0.5-0.4,1.1-0.6,1.8-0.8c0.7-0.2,1.4-0.3,2.2-0.3c0.8,0,1.5,0.1,2.1,0.2c0.6,0.1,1.1,0.2,1.7,0.4
	v-0.3c0-0.9-0.3-1.7-0.9-2.2c-0.6-0.5-1.4-0.7-2.5-0.7c-0.8,0-1.5,0.1-2.1,0.2c-0.6,0.2-1.2,0.4-1.8,0.6l-0.9-2.5
	c0.8-0.3,1.5-0.6,2.3-0.8c0.8-0.2,1.7-0.3,2.9-0.3c2,0,3.5,0.5,4.5,1.5c1,1,1.5,2.4,1.5,4.2v8.1h-3.1v-1.7c-0.5,0.6-1.1,1-1.8,1.4
	c-0.7,0.4-1.6,0.6-2.6,0.6c-0.7,0-1.3-0.1-1.9-0.3s-1.1-0.4-1.5-0.8c-0.4-0.4-0.8-0.8-1.1-1.3c-0.3-0.5-0.4-1.1-0.4-1.8v-0.1
	c0-0.8,0.1-1.4,0.4-2C144.4,139.9,144.7,139.4,145.2,139z M146.8,142.3c0,0.7,0.3,1.2,0.8,1.5c0.5,0.3,1.1,0.5,1.9,0.5
	c0.5,0,1-0.1,1.4-0.2c0.4-0.1,0.8-0.3,1.1-0.6c0.3-0.2,0.6-0.5,0.8-0.9c0.2-0.4,0.3-0.7,0.3-1.2v-0.8c-0.4-0.2-0.9-0.3-1.4-0.4
	c-0.5-0.1-1.1-0.2-1.7-0.2c-1,0-1.7,0.2-2.3,0.6C147,141.1,146.8,141.6,146.8,142.3L146.8,142.3z"/>
<path fill="#808084" d="M176.7,86.6c1.3-1.4,2.9-2.5,4.7-3.4c1.8-0.8,3.8-1.2,6-1.2c2.5,0,4.7,0.4,6.5,1.3c1.8,0.9,3.4,2.1,4.6,3.6
	c1.2,1.5,2.1,3.2,2.7,5.2c0.6,2,0.9,4,0.9,6.1c0,0.3,0,0.7,0,1.1c0,0.4,0,0.8-0.1,1.2H181c0.4,1.9,1.3,3.4,2.5,4.4
	c1.3,1,2.9,1.5,4.8,1.5c1.4,0,2.7-0.2,3.8-0.7c1.1-0.5,2.3-1.3,3.5-2.4l4.9,4.3c-1.4,1.8-3.1,3.1-5.2,4.1c-2,1-4.4,1.5-7.1,1.5
	c-2.2,0-4.3-0.4-6.2-1.1c-1.9-0.7-3.6-1.8-5-3.2c-1.4-1.4-2.5-3-3.3-4.9c-0.8-1.9-1.2-4-1.2-6.3v-0.1c0-2.1,0.4-4.1,1.1-6
	C174.4,89.6,175.4,88,176.7,86.6z M193.7,95.2c-0.3-1.9-0.9-3.4-2-4.6c-1.1-1.2-2.5-1.8-4.3-1.8c-1.8,0-3.2,0.6-4.3,1.7
	c-1.1,1.2-1.8,2.7-2.2,4.6H193.7z"/>
<path fill="#808084" d="M175.2,134.6c0.6-0.6,1.4-1.2,2.3-1.5c0.9-0.4,1.8-0.6,2.8-0.6c1.3,0,2.4,0.2,3.2,0.6c0.9,0.4,1.6,1,2.2,1.7
	l-1.9,2.1c-0.5-0.5-1-0.9-1.5-1.2c-0.5-0.3-1.2-0.5-2-0.5c-0.6,0-1.1,0.1-1.6,0.3c-0.5,0.2-0.9,0.5-1.2,0.9
	c-0.3,0.4-0.6,0.8-0.8,1.4c-0.2,0.5-0.3,1.1-0.3,1.7v0.1c0,0.6,0.1,1.2,0.3,1.7c0.2,0.5,0.5,1,0.8,1.4c0.4,0.4,0.8,0.7,1.3,0.9
	c0.5,0.2,1,0.3,1.7,0.3c0.7,0,1.4-0.2,1.9-0.5c0.6-0.3,1.1-0.7,1.6-1.2l1.9,1.9c-0.7,0.8-1.4,1.4-2.3,1.8c-0.9,0.5-2,0.7-3.3,0.7
	c-1,0-2-0.2-2.8-0.6c-0.9-0.4-1.6-0.9-2.2-1.5c-0.6-0.6-1.1-1.4-1.5-2.2c-0.4-0.9-0.5-1.8-0.5-2.7v-0.1c0-1,0.2-1.9,0.5-2.7
	C174.1,136,174.6,135.2,175.2,134.6z"/>
<path fill="#808084" d="M188.9,134.5c0.6-0.6,1.3-1.2,2.1-1.5c0.8-0.4,1.7-0.6,2.7-0.6c1.1,0,2,0.2,2.9,0.6c0.8,0.4,1.5,0.9,2,1.6
	c0.5,0.7,1,1.4,1.2,2.3c0.3,0.9,0.4,1.8,0.4,2.8c0,0.1,0,0.3,0,0.4c0,0.1,0,0.3,0,0.5h-10c0.2,1.1,0.6,2,1.3,2.6
	c0.7,0.6,1.6,0.9,2.6,0.9c0.8,0,1.4-0.1,2-0.4c0.6-0.3,1.1-0.7,1.7-1.2l1.8,1.6c-0.7,0.8-1.4,1.4-2.3,1.9c-0.9,0.5-2,0.7-3.2,0.7
	c-1,0-1.9-0.2-2.8-0.5c-0.9-0.3-1.6-0.8-2.2-1.4c-0.6-0.6-1.1-1.4-1.5-2.2c-0.4-0.9-0.5-1.8-0.5-2.9v-0.1c0-1,0.2-1.9,0.5-2.8
	C187.9,135.9,188.3,135.2,188.9,134.5z M197.1,138.6c-0.1-0.5-0.2-1-0.3-1.4c-0.2-0.4-0.4-0.8-0.7-1.1c-0.3-0.3-0.6-0.6-1-0.8
	c-0.4-0.2-0.9-0.3-1.4-0.3c-1,0-1.8,0.3-2.4,1c-0.6,0.7-1,1.5-1.1,2.6H197.1z"/>
<path fill="#BEC0C2" d="M202.1,73.2l39.6-39.6c0.4-0.4,1-0.4,1.4,0l5.7,5.7c0.4,0.4,0.4,1,0,1.4l-39.6,39.6c-0.4,0.4-1,0.4-1.4,0
	l-5.7-5.7C201.7,74.3,201.7,73.6,202.1,73.2z"/>
<path fill="#808084" d="M203.7,133.5c0.3-0.3,0.6-0.5,1-0.7c0.4-0.2,0.8-0.3,1.2-0.3c0.4,0,0.9,0.1,1.2,0.2c0.4,0.2,0.7,0.4,1,0.7
	c0.3,0.3,0.5,0.6,0.7,1c0.2,0.4,0.2,0.8,0.2,1.2v0c0,0.4-0.1,0.8-0.2,1.2c-0.2,0.4-0.4,0.7-0.7,1c-0.3,0.3-0.6,0.5-1,0.7
	c-0.4,0.2-0.8,0.3-1.2,0.3s-0.9-0.1-1.2-0.2c-0.4-0.2-0.7-0.4-1-0.7c-0.3-0.3-0.5-0.6-0.7-1c-0.2-0.4-0.2-0.8-0.2-1.2v0
	c0-0.4,0.1-0.8,0.2-1.2C203.2,134.1,203.4,133.7,203.7,133.5z M203.1,135.7c0,0.4,0.1,0.8,0.2,1.1c0.1,0.3,0.3,0.6,0.6,0.9
	c0.3,0.3,0.5,0.5,0.9,0.6c0.3,0.1,0.7,0.2,1.1,0.2c0.4,0,0.8-0.1,1.1-0.2c0.3-0.2,0.6-0.4,0.9-0.6c0.3-0.3,0.5-0.6,0.6-0.9
	c0.1-0.3,0.2-0.7,0.2-1.1v0c0-0.4-0.1-0.8-0.2-1.1c-0.1-0.3-0.3-0.6-0.6-0.9c-0.3-0.3-0.6-0.5-0.9-0.6c-0.3-0.1-0.7-0.2-1.1-0.2
	c-0.4,0-0.8,0.1-1.1,0.2s-0.6,0.4-0.9,0.6c-0.3,0.3-0.5,0.6-0.6,0.9C203.2,134.9,203.1,135.3,203.1,135.7L203.1,135.7z M207.1,134.3
	c0.2,0.2,0.3,0.4,0.3,0.7v0c0,0.3-0.1,0.5-0.2,0.6c-0.1,0.2-0.3,0.3-0.6,0.3l0.9,1.2h-0.7l-0.8-1.1h0h-0.7v1.1h-0.6v-3.3h1.5
	C206.6,133.9,206.9,134,207.1,134.3z M205.3,134.5v1h0.8c0.2,0,0.4,0,0.5-0.1c0.1-0.1,0.2-0.2,0.2-0.4v0c0-0.2-0.1-0.3-0.2-0.4
	s-0.3-0.1-0.5-0.1H205.3z"/>
</svg>
